<mxfile host="65bd71144e">
    <diagram id="W2HS0IA7veLctY5iaHjV" name="Page-1">
        <mxGraphModel dx="1852" dy="519" grid="1" gridSize="10" guides="1" tooltips="1" connect="1" arrows="1" fold="1" page="1" pageScale="1" pageWidth="850" pageHeight="1100" math="0" shadow="0">
            <root>
                <mxCell id="0"/>
                <mxCell id="1" parent="0"/>
                <mxCell id="3" value="Equipement" style="swimlane;whiteSpace=wrap;html=1;" parent="1" vertex="1">
                    <mxGeometry x="30" y="20" width="130" height="110" as="geometry"/>
                </mxCell>
                <mxCell id="7" value="Référence:String" style="text;html=1;align=center;verticalAlign=middle;resizable=0;points=[];autosize=1;strokeColor=none;fillColor=none;" parent="3" vertex="1">
                    <mxGeometry x="-15" y="30" width="110" height="30" as="geometry"/>
                </mxCell>
                <mxCell id="17" value="" style="edgeStyle=none;html=1;entryX=0.5;entryY=0;entryDx=0;entryDy=0;" parent="1" source="8" target="14" edge="1">
                    <mxGeometry relative="1" as="geometry">
                        <mxPoint x="441.5" y="175" as="targetPoint"/>
                        <Array as="points">
                            <mxPoint x="463" y="175"/>
                        </Array>
                    </mxGeometry>
                </mxCell>
                <mxCell id="8" value="Système" style="swimlane;whiteSpace=wrap;html=1;" parent="1" vertex="1">
                    <mxGeometry x="217" y="120" width="123" height="110" as="geometry"/>
                </mxCell>
                <mxCell id="10" value="" style="edgeStyle=none;orthogonalLoop=1;jettySize=auto;html=1;entryX=0.5;entryY=0;entryDx=0;entryDy=0;exitX=1;exitY=0.5;exitDx=0;exitDy=0;" parent="1" source="3" target="8" edge="1">
                    <mxGeometry width="100" relative="1" as="geometry">
                        <mxPoint x="160" y="20" as="sourcePoint"/>
                        <mxPoint x="260" y="20" as="targetPoint"/>
                        <Array as="points">
                            <mxPoint x="280" y="75"/>
                        </Array>
                    </mxGeometry>
                </mxCell>
                <mxCell id="11" value="hasSystem" style="text;html=1;align=center;verticalAlign=middle;resizable=0;points=[];autosize=1;strokeColor=none;fillColor=none;" parent="1" vertex="1">
                    <mxGeometry x="180" y="54" width="80" height="30" as="geometry"/>
                </mxCell>
                <mxCell id="12" value="hasSystem:Système" style="text;html=1;align=center;verticalAlign=middle;resizable=0;points=[];autosize=1;strokeColor=none;fillColor=none;" parent="1" vertex="1">
                    <mxGeometry x="21" y="78" width="130" height="30" as="geometry"/>
                </mxCell>
                <mxCell id="13" value="Source: String" style="text;html=1;align=center;verticalAlign=middle;resizable=0;points=[];autosize=1;strokeColor=none;fillColor=none;" parent="1" vertex="1">
                    <mxGeometry x="208" y="148" width="100" height="30" as="geometry"/>
                </mxCell>
                <mxCell id="25" value="" style="edgeStyle=none;html=1;entryX=1;entryY=0.5;entryDx=0;entryDy=0;" parent="1" edge="1">
                    <mxGeometry relative="1" as="geometry">
                        <mxPoint x="400" y="273.1929824561404" as="sourcePoint"/>
                        <mxPoint x="201" y="276" as="targetPoint"/>
                        <Array as="points">
                            <mxPoint x="320" y="276"/>
                        </Array>
                    </mxGeometry>
                </mxCell>
                <mxCell id="14" value="Sous-Système" style="swimlane;whiteSpace=wrap;html=1;" parent="1" vertex="1">
                    <mxGeometry x="400" y="220" width="125" height="110" as="geometry"/>
                </mxCell>
                <mxCell id="15" value="Circuit: String" style="text;html=1;align=center;verticalAlign=middle;resizable=0;points=[];autosize=1;strokeColor=none;fillColor=none;" parent="1" vertex="1">
                    <mxGeometry x="402" y="248" width="100" height="30" as="geometry"/>
                </mxCell>
                <mxCell id="18" value="hasSubSystem" style="text;html=1;align=center;verticalAlign=middle;resizable=0;points=[];autosize=1;strokeColor=none;fillColor=none;" parent="1" vertex="1">
                    <mxGeometry x="350" y="148" width="100" height="30" as="geometry"/>
                </mxCell>
                <mxCell id="19" value="Sensor" style="swimlane;whiteSpace=wrap;html=1;" parent="1" vertex="1">
                    <mxGeometry x="92" y="413" width="125" height="116" as="geometry"/>
                </mxCell>
                <mxCell id="28" value="ID: Integer&lt;div&gt;Type: String&lt;/div&gt;&lt;div&gt;Unit: String&lt;/div&gt;&lt;div&gt;Value: Float&lt;/div&gt;&lt;div&gt;&amp;nbsp;&lt;/div&gt;" style="text;html=1;align=center;verticalAlign=middle;resizable=0;points=[];autosize=1;strokeColor=none;fillColor=none;" parent="19" vertex="1">
                    <mxGeometry x="20" y="21" width="90" height="90" as="geometry"/>
                </mxCell>
                <mxCell id="43" value="" style="edgeStyle=none;html=1;entryX=0.5;entryY=1;entryDx=0;entryDy=0;" parent="1" source="20" target="19" edge="1">
                    <mxGeometry relative="1" as="geometry">
                        <mxPoint x="234" y="591.5" as="targetPoint"/>
                        <Array as="points">
                            <mxPoint x="155" y="590"/>
                        </Array>
                    </mxGeometry>
                </mxCell>
                <mxCell id="20" value="Diagnostic" style="swimlane;whiteSpace=wrap;html=1;" parent="1" vertex="1">
                    <mxGeometry x="350" y="529" width="152" height="125" as="geometry"/>
                </mxCell>
                <mxCell id="40" value="FMI: Integer&lt;div&gt;CID: Integer&lt;/div&gt;&lt;div&gt;Timestamp: date&lt;/div&gt;&lt;div&gt;Severity: Integer&lt;/div&gt;&lt;div&gt;OperatingHour: Float&lt;/div&gt;&lt;div&gt;Occurrence: Integer&lt;/div&gt;&lt;div&gt;&lt;br&gt;&lt;/div&gt;" style="text;html=1;align=center;verticalAlign=middle;resizable=0;points=[];autosize=1;strokeColor=none;fillColor=none;" parent="20" vertex="1">
                    <mxGeometry x="6" y="21" width="140" height="110" as="geometry"/>
                </mxCell>
                <mxCell id="49" value="" style="edgeStyle=none;html=1;entryX=0.5;entryY=0;entryDx=0;entryDy=0;" parent="1" source="21" target="22" edge="1">
                    <mxGeometry relative="1" as="geometry">
                        <mxPoint x="-79" y="435" as="targetPoint"/>
                    </mxGeometry>
                </mxCell>
                <mxCell id="50" value="Triggers" style="edgeLabel;html=1;align=center;verticalAlign=middle;resizable=0;points=[];" parent="49" vertex="1" connectable="0">
                    <mxGeometry x="0.0225" y="2" relative="1" as="geometry">
                        <mxPoint as="offset"/>
                    </mxGeometry>
                </mxCell>
                <mxCell id="21" value="Failure-Event" style="swimlane;whiteSpace=wrap;html=1;" parent="1" vertex="1">
                    <mxGeometry x="-170" y="220" width="190" height="110" as="geometry"/>
                </mxCell>
                <mxCell id="36" value="Event code: String&lt;div&gt;Timestamp: date&lt;/div&gt;&lt;div&gt;Severity: Integer&lt;/div&gt;&lt;div&gt;OperatingHour: Float&lt;/div&gt;&lt;div&gt;Occurrence: Integer&lt;/div&gt;" style="text;html=1;align=center;verticalAlign=middle;resizable=0;points=[];autosize=1;strokeColor=none;fillColor=none;" parent="21" vertex="1">
                    <mxGeometry x="25" y="20" width="140" height="90" as="geometry"/>
                </mxCell>
                <mxCell id="22" value="Maintenance Action" style="swimlane;whiteSpace=wrap;html=1;" parent="1" vertex="1">
                    <mxGeometry x="-140" y="598" width="125" height="110" as="geometry"/>
                </mxCell>
                <mxCell id="29" value="" style="edgeStyle=none;html=1;" parent="1" source="23" edge="1">
                    <mxGeometry relative="1" as="geometry">
                        <mxPoint x="139" y="410" as="targetPoint"/>
                    </mxGeometry>
                </mxCell>
                <mxCell id="30" value="Text" style="edgeLabel;html=1;align=center;verticalAlign=middle;resizable=0;points=[];" parent="29" vertex="1" connectable="0">
                    <mxGeometry x="-0.0662" y="4" relative="1" as="geometry">
                        <mxPoint as="offset"/>
                    </mxGeometry>
                </mxCell>
                <mxCell id="31" value="isMonitoredBy" style="edgeLabel;html=1;align=center;verticalAlign=middle;resizable=0;points=[];" parent="29" vertex="1" connectable="0">
                    <mxGeometry x="-0.0925" y="8" relative="1" as="geometry">
                        <mxPoint as="offset"/>
                    </mxGeometry>
                </mxCell>
                <mxCell id="23" value="MaintenableItem" style="swimlane;whiteSpace=wrap;html=1;" parent="1" vertex="1">
                    <mxGeometry x="76" y="225" width="125" height="110" as="geometry"/>
                </mxCell>
                <mxCell id="26" value="hasMaintenable-Item" style="text;html=1;align=center;verticalAlign=middle;resizable=0;points=[];autosize=1;strokeColor=none;fillColor=none;" parent="1" vertex="1">
                    <mxGeometry x="220" y="255" width="140" height="30" as="geometry"/>
                </mxCell>
                <mxCell id="27" value="Component: String" style="text;html=1;align=center;verticalAlign=middle;resizable=0;points=[];autosize=1;strokeColor=none;fillColor=none;" parent="1" vertex="1">
                    <mxGeometry x="68" y="258" width="120" height="30" as="geometry"/>
                </mxCell>
                <mxCell id="34" value="Failure-Mode" style="swimlane;whiteSpace=wrap;html=1;" parent="1" vertex="1">
                    <mxGeometry x="350" y="361" width="140" height="111" as="geometry"/>
                </mxCell>
                <mxCell id="35" value="FMI Number: Integer&lt;div&gt;&lt;font color=&quot;#000000&quot;&gt;Failure Description: String&lt;br&gt;&lt;/font&gt;&lt;div&gt;&lt;font color=&quot;#000000&quot;&gt;&lt;br&gt;&lt;/font&gt;&lt;div&gt;&lt;font color=&quot;#000000&quot;&gt;&lt;br&gt;&lt;/font&gt;&lt;div&gt;&lt;font color=&quot;#000000&quot;&gt;&lt;br&gt;&lt;/font&gt;&lt;div&gt;&lt;br&gt;&lt;/div&gt;&lt;/div&gt;&lt;/div&gt;&lt;/div&gt;&lt;/div&gt;" style="text;html=1;align=center;verticalAlign=middle;resizable=0;points=[];autosize=1;strokeColor=none;fillColor=none;" parent="34" vertex="1">
                    <mxGeometry x="-8" y="20" width="160" height="100" as="geometry"/>
                </mxCell>
                <mxCell id="37" value="CID: Integer&lt;div&gt;Event code: String&lt;/div&gt;" style="text;html=1;align=center;verticalAlign=middle;resizable=0;points=[];autosize=1;strokeColor=none;fillColor=none;" parent="1" vertex="1">
                    <mxGeometry x="72" y="283" width="120" height="40" as="geometry"/>
                </mxCell>
                <mxCell id="38" value="" style="edgeStyle=none;html=1;entryX=0.167;entryY=-0.05;entryDx=0;entryDy=0;entryPerimeter=0;" parent="1" edge="1">
                    <mxGeometry relative="1" as="geometry">
                        <mxPoint x="20" y="281.4617040910489" as="sourcePoint"/>
                        <mxPoint x="80.03999999999996" y="281" as="targetPoint"/>
                    </mxGeometry>
                </mxCell>
                <mxCell id="39" value="affects" style="text;html=1;align=center;verticalAlign=middle;resizable=0;points=[];autosize=1;strokeColor=none;fillColor=none;" parent="1" vertex="1">
                    <mxGeometry x="16" y="259" width="60" height="30" as="geometry"/>
                </mxCell>
                <mxCell id="44" value="diagnose" style="text;html=1;align=center;verticalAlign=middle;resizable=0;points=[];autosize=1;strokeColor=none;fillColor=none;" parent="1" vertex="1">
                    <mxGeometry x="205" y="568" width="70" height="30" as="geometry"/>
                </mxCell>
                <mxCell id="69" value="Architecture du projet" style="swimlane;childLayout=stackLayout;resizeParent=1;resizeParentMax=0;horizontal=1;startSize=20;horizontalStack=0;html=1;fillColor=#fff2cc;strokeColor=#d6b656;shadow=1;" parent="1" vertex="1">
                    <mxGeometry x="-830" y="170" width="580" height="380" as="geometry"/>
                </mxCell>
                <mxCell id="70" value="Phase 1" style="swimlane;startSize=20;horizontal=0;html=1;fillColor=#fff2cc;strokeColor=#d6b656;shadow=1;" parent="69" vertex="1">
                    <mxGeometry y="20" width="580" height="120" as="geometry"/>
                </mxCell>
                <mxCell id="74" value="&lt;b&gt;Ontology&amp;nbsp;&lt;/b&gt;" style="shape=ext;double=1;rounded=1;whiteSpace=wrap;html=1;fillColor=#ffe6cc;strokeColor=#d79b00;" parent="70" vertex="1">
                    <mxGeometry x="70" y="26.5" width="100" height="67" as="geometry"/>
                </mxCell>
                <mxCell id="75" value="&lt;b&gt;Moteur d&#39;inférence&lt;/b&gt;" style="shape=ext;double=1;rounded=1;whiteSpace=wrap;html=1;arcSize=26;fillColor=#ffe6cc;strokeColor=#d79b00;" parent="70" vertex="1">
                    <mxGeometry x="390" y="26" width="100" height="67" as="geometry"/>
                </mxCell>
                <mxCell id="77" value="" style="endArrow=classic;html=1;exitX=1;exitY=0.5;exitDx=0;exitDy=0;entryX=0;entryY=0.5;entryDx=0;entryDy=0;" parent="70" source="74" target="75" edge="1">
                    <mxGeometry width="50" height="50" relative="1" as="geometry">
                        <mxPoint x="270" y="190" as="sourcePoint"/>
                        <mxPoint x="320" y="140" as="targetPoint"/>
                    </mxGeometry>
                </mxCell>
                <mxCell id="71" value="Phase 2" style="swimlane;startSize=20;horizontal=0;html=1;fillColor=#fff2cc;strokeColor=#d6b656;shadow=1;" parent="69" vertex="1">
                    <mxGeometry y="140" width="580" height="120" as="geometry"/>
                </mxCell>
                <mxCell id="79" value="&lt;b&gt;Base de Connaissance&lt;/b&gt;" style="shape=cylinder3;whiteSpace=wrap;html=1;boundedLbl=1;backgroundOutline=1;size=15;fillColor=#dae8fc;strokeColor=#6c8ebf;" parent="71" vertex="1">
                    <mxGeometry x="150" y="15" width="90" height="90" as="geometry"/>
                </mxCell>
                <mxCell id="76" value="&lt;b&gt;Calculer RUL&lt;/b&gt;" style="shape=ext;double=1;rounded=1;whiteSpace=wrap;html=1;fillColor=#ffe6cc;strokeColor=#d79b00;" parent="71" vertex="1">
                    <mxGeometry x="440" y="26.5" width="100" height="67" as="geometry"/>
                </mxCell>
                <mxCell id="130" value="" style="endArrow=classic;html=1;exitX=0;exitY=0.5;exitDx=0;exitDy=0;entryX=1;entryY=0.5;entryDx=0;entryDy=0;entryPerimeter=0;" parent="71" source="76" edge="1" target="79">
                    <mxGeometry width="50" height="50" relative="1" as="geometry">
                        <mxPoint x="300" y="80" as="sourcePoint"/>
                        <mxPoint x="240" y="20" as="targetPoint"/>
                    </mxGeometry>
                </mxCell>
                <mxCell id="72" value="Phase 3" style="swimlane;startSize=20;horizontal=0;html=1;fillColor=#fff2cc;strokeColor=#d6b656;shadow=1;" parent="69" vertex="1">
                    <mxGeometry y="260" width="580" height="120" as="geometry"/>
                </mxCell>
                <mxCell id="81" value="&lt;b&gt;Best Prediction&lt;/b&gt;" style="rhombus;whiteSpace=wrap;html=1;fillColor=#f8cecc;strokeColor=#b85450;" parent="72" vertex="1">
                    <mxGeometry x="170" y="25.75" width="80" height="80" as="geometry"/>
                </mxCell>
                <mxCell id="80" value="&lt;b&gt;Interface Humain Machine&lt;/b&gt;" style="shape=ext;double=1;rounded=1;whiteSpace=wrap;html=1;fillColor=#fff2cc;strokeColor=#d6b656;" parent="72" vertex="1">
                    <mxGeometry x="430" y="25.75" width="120" height="68.5" as="geometry"/>
                </mxCell>
                <mxCell id="139" style="edgeStyle=none;html=1;exitX=1;exitY=0.5;exitDx=0;exitDy=0;entryX=0;entryY=0.602;entryDx=0;entryDy=0;entryPerimeter=0;" edge="1" parent="72" source="81" target="80">
                    <mxGeometry relative="1" as="geometry"/>
                </mxCell>
                <mxCell id="119" value="" style="endArrow=classic;html=1;entryX=0;entryY=0;entryDx=0;entryDy=30;entryPerimeter=0;" parent="69" source="74" target="79" edge="1">
                    <mxGeometry width="50" height="50" relative="1" as="geometry">
                        <mxPoint x="310" y="220" as="sourcePoint"/>
                        <mxPoint x="360" y="170" as="targetPoint"/>
                    </mxGeometry>
                </mxCell>
                <mxCell id="120" value="" style="edgeStyle=elbowEdgeStyle;elbow=vertical;endArrow=classic;html=1;curved=0;rounded=0;endSize=8;startSize=8;exitX=-0.033;exitY=0.589;exitDx=0;exitDy=0;exitPerimeter=0;entryX=0;entryY=0.5;entryDx=0;entryDy=0;" parent="69" source="79" target="81" edge="1">
                    <mxGeometry width="50" height="50" relative="1" as="geometry">
                        <mxPoint x="310" y="220" as="sourcePoint"/>
                        <mxPoint x="360" y="170" as="targetPoint"/>
                        <Array as="points">
                            <mxPoint x="100" y="300"/>
                            <mxPoint x="130" y="240"/>
                        </Array>
                    </mxGeometry>
                </mxCell>
                <mxCell id="129" value="" style="endArrow=classic;html=1;entryX=-0.001;entryY=0.378;entryDx=0;entryDy=0;entryPerimeter=0;" parent="69" target="80" edge="1" source="79">
                    <mxGeometry width="50" height="50" relative="1" as="geometry">
                        <mxPoint x="240" y="200" as="sourcePoint"/>
                        <mxPoint x="350" y="170" as="targetPoint"/>
                    </mxGeometry>
                </mxCell>
                <mxCell id="142" style="edgeStyle=none;html=1;exitX=0.5;exitY=1;exitDx=0;exitDy=0;entryX=0.388;entryY=0.026;entryDx=0;entryDy=0;entryPerimeter=0;" edge="1" parent="69" source="75" target="76">
                    <mxGeometry relative="1" as="geometry"/>
                </mxCell>
                <mxCell id="136" value="Phase 4" style="swimlane;startSize=20;horizontal=0;html=1;fillColor=#fff2cc;strokeColor=#d6b656;shadow=1;" vertex="1" parent="1">
                    <mxGeometry x="-830" y="550" width="580" height="120" as="geometry"/>
                </mxCell>
                <mxCell id="140" value="&lt;b&gt;Optimisation de l’affectation des ressources de maintenance&lt;/b&gt;" style="shape=ext;double=1;rounded=1;whiteSpace=wrap;html=1;fillColor=#fff2cc;strokeColor=#d6b656;" vertex="1" parent="136">
                    <mxGeometry x="110" y="35.5" width="400" height="68.5" as="geometry"/>
                </mxCell>
                <mxCell id="141" style="edgeStyle=none;html=1;exitX=0.5;exitY=1;exitDx=0;exitDy=0;entryX=0.25;entryY=0;entryDx=0;entryDy=0;" edge="1" parent="1" source="81" target="140">
                    <mxGeometry relative="1" as="geometry">
                        <mxPoint x="-620" y="560" as="targetPoint"/>
                    </mxGeometry>
                </mxCell>
                <mxCell id="146" style="edgeStyle=none;html=1;entryX=0.5;entryY=0;entryDx=0;entryDy=0;exitX=0.5;exitY=1;exitDx=0;exitDy=0;" edge="1" parent="1" source="143" target="145">
                    <mxGeometry relative="1" as="geometry">
                        <mxPoint x="-450" y="830" as="sourcePoint"/>
                        <Array as="points">
                            <mxPoint x="-450" y="830"/>
                            <mxPoint x="-760" y="830"/>
                        </Array>
                    </mxGeometry>
                </mxCell>
                <mxCell id="143" value="Moteur d&#39;inférence" style="rounded=1;whiteSpace=wrap;html=1;" vertex="1" parent="1">
                    <mxGeometry x="-510" y="750" width="120" height="60" as="geometry"/>
                </mxCell>
                <mxCell id="145" value="" style="rounded=1;whiteSpace=wrap;html=1;" vertex="1" parent="1">
                    <mxGeometry x="-820" y="880.0000000000002" width="120" height="60" as="geometry"/>
                </mxCell>
                <mxCell id="147" value="" style="rounded=1;whiteSpace=wrap;html=1;" vertex="1" parent="1">
                    <mxGeometry x="-670" y="880" width="120" height="60" as="geometry"/>
                </mxCell>
                <mxCell id="148" value="" style="rounded=1;whiteSpace=wrap;html=1;" vertex="1" parent="1">
                    <mxGeometry x="-530" y="880" width="120" height="60" as="geometry"/>
                </mxCell>
                <mxCell id="149" value="" style="rounded=1;whiteSpace=wrap;html=1;" vertex="1" parent="1">
                    <mxGeometry x="-390" y="880" width="120" height="60" as="geometry"/>
                </mxCell>
                <mxCell id="150" value="" style="rounded=1;whiteSpace=wrap;html=1;" vertex="1" parent="1">
                    <mxGeometry x="-250" y="880" width="120" height="60" as="geometry"/>
                </mxCell>
            </root>
        </mxGraphModel>
    </diagram>
</mxfile>